<?xml version="1.0" encoding="UTF-8" standalone="no"?>
<svg
   xmlns:dc="http://purl.org/dc/elements/1.1/"
   xmlns:cc="http://creativecommons.org/ns#"
   xmlns:rdf="http://www.w3.org/1999/02/22-rdf-syntax-ns#"
   xmlns:svg="http://www.w3.org/2000/svg"
   xmlns="http://www.w3.org/2000/svg"
   id="svg4"
   xml:space="preserve"
   enable-background="new 0 0 200 200"
   viewBox="0 0 200 200"
   y="0px"
   x="0px"
   version="1.1"><metadata
     id="metadata10"><rdf:RDF><cc:Work
         rdf:about=""><dc:format>image/svg+xml</dc:format><dc:type
           rdf:resource="http://purl.org/dc/dcmitype/StillImage" /></cc:Work></rdf:RDF></metadata><defs
     id="defs8" /><path
     id="path2"
     d="m100.2 40.004c-0.46975-0.009-1.0139-0.00044-1.209 0.01949-0.19465 0.02039-0.53201 0.06677-0.75 0.10351-0.21757 0.03708-0.57973 0.11365-0.80274 0.16992-0.22299 0.05627-0.57734 0.16156-0.78906 0.23242-0.21173 0.07087-0.55888 0.20364-0.77148 0.29492-0.21215 0.09126-0.59788 0.27763-0.85547 0.41602-0.258 0.13838-0.63897 0.36441-0.8457 0.50196-0.20674 0.13755-0.5535 0.39302-0.77149 0.56641-0.21757 0.1734-0.59377 0.51371-0.83594 0.75586-0.24258 0.24217-0.59202 0.62808-0.77539 0.85938-0.18382 0.23132-0.4421 0.58468-0.57421 0.78515-0.13213 0.20049-0.34134 0.55607-0.4668 0.78906s-0.31096 0.61286-0.41015 0.84375c-0.09965 0.23132-0.23998 0.59701-0.3125 0.8125-0.07257 0.2159-0.18567 0.61744-0.25195 0.89258-0.06627 0.27509-0.15335 0.71663-0.19336 0.98047-0.05418 0.3547-0.07416 0.73221-0.07416 1.457 0 0.72815 0.01919 1.1026 0.07416 1.459 0.04048 0.26342 0.11082 0.63891 0.15625 0.83398 0.04498 0.19464 0.12915 0.51828 0.1875 0.71876 0.05837 0.20007 0.18216 0.55748 0.27344 0.79297 0.09166 0.23508 0.26431 0.62428 0.38476 0.86523 0.12045 0.24049 0.32839 0.61448 0.46094 0.83203 0.13296 0.21799 0.36979 0.56772 0.52734 0.77735 0.15797 0.20965 0.44345 0.55725 0.63476 0.77148 0.19131 0.21466 0.49601 0.52188 0.67773 0.68359 0.18174 0.16214 0.46258 0.39938 0.62305 0.52734 0.16046 0.12754 0.46993 0.35147 0.6875 0.4961 0.21799 0.14504 0.65757 0.39856 0.97851 0.56445s0.781 0.37734 1.0215 0.47071c0.2405 0.09376 0.63182 0.22656 0.87109 0.29492 0.23883 0.06877 0.61429 0.16172 0.83398 0.20508 0.21966 0.04378 0.57739 0.10393 0.79493 0.13477 0.23674 0.03338 0.76638 0.05358 1.3144 0.05278 0.65647-0.000819 1.058-0.02129 1.416-0.07427 0.27509-0.04088 0.66083-0.11165 0.85546-0.15625 0.19507-0.04498 0.5222-0.12985 0.72853-0.18945 0.20631-0.05957 0.56372-0.18258 0.79297-0.27344 0.22924-0.09046 0.63516-0.27399 0.90234-0.4082 0.26716-0.13463 0.64267-0.34174 0.83398-0.46094 0.19131-0.11922 0.51929-0.34718 0.72852-0.5039 0.20965-0.15714 0.55725-0.4415 0.77148-0.63282 0.21466-0.19131 0.52188-0.496 0.68359-0.67773 0.16214-0.18172 0.39939-0.46062 0.52735-0.62109 0.12755-0.16046 0.3495-0.46993 0.49414-0.6875 0.14505-0.21799 0.4001-0.65953 0.5664-0.98047 0.16589-0.32094 0.37088-0.76097 0.45508-0.97852 0.0838-0.21799 0.20605-0.57102 0.27148-0.7832 0.0655-0.21215 0.16444-0.60574 0.22071-0.87499 0.0559-0.26926 0.12582-0.66723 0.15625-0.88477 0.0329-0.23507 0.0555-0.76817 0.0547-1.3125-0.00075-0.6498-0.0226-1.0637-0.0743-1.418-0.04-0.27509-0.11082-0.65887-0.15625-0.85352-0.0451-0.19507-0.12915-0.51827-0.1875-0.71875-0.0583-0.20007-0.18104-0.55386-0.27149-0.78515-0.0901-0.23174-0.25983-0.6123-0.37695-0.84571-0.11671-0.23299-0.25917-0.50642-0.31835-0.60938-0.0592-0.10337-0.21959-0.35813-0.35548-0.56445-0.13587-0.20632-0.35096-0.50555-0.47851-0.66602-0.12796-0.16048-0.36521-0.43938-0.52735-0.62109-0.16171-0.18174-0.46893-0.48641-0.68359-0.67774-0.21423-0.19131-0.56434-0.47863-0.77734-0.63867-0.21299-0.16006-0.59104-0.41553-0.83985-0.56641-0.24883-0.1513-0.62798-0.35881-0.8418-0.46094-0.21382-0.10211-0.56927-0.25776-0.79101-0.34571-0.22173-0.08796-0.57301-0.20798-0.77929-0.26758-0.20633-0.05997-0.53346-0.14639-0.72853-0.19141-0.19463-0.04498-0.55205-0.11175-0.79296-0.14843-0.24925-0.03798-0.80464-0.07327-1.291-0.08206zm-12.538 10.359c-0.01889 0.002-0.27347 0.17203-0.57031 0.38085-0.29802 0.20924-0.80408 0.5901-1.125 0.84766-0.32094 0.25717-0.84434 0.70882-1.1641 1.0039-0.31969 0.2951-0.8161 0.78993-1.1016 1.0996-0.28551 0.30928-0.67334 0.74926-0.86132 0.97851-0.1884 0.22923-0.48258 0.60629-0.65431 0.83594-0.17172 0.22966-0.47965 0.66925-0.68554 0.97851-0.2059 0.30886-0.46965 0.72094-0.58594 0.91601-0.11588 0.19465-0.34191 0.59847-0.50196 0.89648-0.16004 0.29802-0.40739 0.7958-0.55078 1.1055-0.14296 0.30928-0.35806 0.80554-0.47852 1.1035-0.12003 0.29802-0.31563 0.82877-0.43359 1.1797-0.11796 0.35096-0.2907 0.91326-0.38281 1.25-0.09256 0.33676-0.23106 0.92228-0.3086 1.3008-0.07796 0.37804-0.17988 0.94032-0.22656 1.25-0.04628 0.3097-0.11189 0.86368-0.14648 1.2305-0.03458 0.36722-0.07487 1.042-0.08986 1.5-0.01589 0.4814-0.008 1.2034 0.01949 1.709 0.02629 0.48141 0.07516 1.1278 0.10938 1.4375 0.03378 0.3097 0.10808 0.85425 0.16601 1.209 0.05797 0.3547 0.17122 0.92862 0.25 1.2754 0.07916 0.34679 0.22558 0.91846 0.32812 1.2715 0.10212 0.35262 0.26111 0.849 0.35157 1.1016 0.09046 0.25216 0.25296 0.67408 0.36133 0.93749 0.10879 0.26342 0.27858 0.63811 0.37694 0.83399 0.09835 0.1959 0.29495 0.53115 0.43751 0.74413 0.14254 0.21341 0.42915 0.56449 0.63671 0.78126 0.20715 0.21674 0.52195 0.50558 0.70117 0.64062 0.17965 0.13505 0.45321 0.31606 0.60743 0.40234 0.1538 0.08586 0.44768 0.22804 0.65234 0.31641 0.20466 0.08796 0.57934 0.21385 0.83399 0.27929 0.25467 0.06547 0.68907 0.14199 0.96289 0.16992 0.29759 0.03079 0.6713 0.04008 0.92969 0.02349 0.238-0.01539 0.5859-0.05338 0.77343-0.08596 0.18756-0.03289 0.5109-0.10837 0.7168-0.16797 0.20632-0.05957 0.51383-0.16603 0.68555-0.23438 0.17214-0.06837 0.48314-0.21812 0.68945-0.33398 0.20632-0.11587 0.51578-0.3158 0.68751-0.44335 0.17214-0.12796 0.48188-0.40292 0.68945-0.61132 0.2109-0.21215 0.49883-0.56345 0.6543-0.79688 0.15297-0.23007 0.35332-0.57765 0.44336-0.77148 0.08966-0.19339 0.21034-0.49656 0.26952-0.67578 0.05957-0.17881 0.15032-0.53622 0.20118-0.79297 0.07796-0.39222 0.09176-0.60569 0.09176-1.3418 0-0.66106-0.01749-0.97632-0.07427-1.291-0.04128-0.22924-0.23252-0.88588-0.42383-1.459-0.19089-0.57311-0.39435-1.2606-0.45312-1.5273-0.05877-0.26676-0.13673-0.74447-0.17383-1.0625-0.04838-0.41389-0.06117-0.76841-0.04488-1.2461 0.01249-0.36679 0.05308-0.88306 0.09176-1.1465 0.03838-0.26342 0.13229-0.72403 0.20898-1.0254 0.07666-0.30135 0.20765-0.73308 0.29102-0.95898 0.08336-0.2259 0.27138-0.65512 0.41602-0.95313 0.14505-0.29802 0.36996-0.71166 0.5-0.91797 0.13005-0.20632 0.36406-0.54482 0.51954-0.75195 0.15547-0.20757 0.4181-0.52237 0.58398-0.70117 0.16589-0.17881 0.47395-0.48392 0.68359-0.67773 0.20966-0.19382 0.38592-0.36755 0.39259-0.38672 0.007-0.01879-0.08986-0.09326-0.21485-0.16406-0.125-0.071-0.41-0.251-0.632-0.402-0.224-0.149-0.587-0.417-0.807-0.594-0.22-0.176-0.596-0.51-0.834-0.738-0.238-0.23-0.578-0.585-0.754-0.791-0.177-0.206-0.437-0.532-0.582-0.723s-0.383-0.538-0.531-0.771c-0.147-0.233-0.406-0.695-0.574-1.028-0.168-0.332-0.394-0.826-0.5-1.097-0.1072-0.27137-0.26038-0.72187-0.33984-0.99999-0.08026-0.27737-0.19303-0.73617-0.25-1.0195-0.05747-0.28301-0.13072-0.77205-0.16406-1.0859-0.03338-0.31426-0.06017-0.71504-0.06057-0.89258-0.00042-0.17756-0.01609-0.32267-0.03319-0.32226zm24.646 0.28906c-0.0113 0-0.021 0.14471-0.0215 0.32227-0.00042 0.17757-0.0185 0.50271-0.041 0.7207-0.0225 0.21757-0.0694 0.56321-0.10353 0.76953-0.0347 0.20631-0.0923 0.50749-0.1289 0.66797-0.0371 0.16047-0.12571 0.48759-0.19531 0.72851-0.0697 0.24049-0.20479 0.64431-0.30273 0.89648-0.098 0.25216-0.24743 0.60958-0.33204 0.79297-0.0846 0.1834-0.25764 0.52076-0.38476 0.75-0.12754 0.22924-0.36297 0.6126-0.52344 0.85352-0.16047 0.24048-0.41664 0.59681-0.56836 0.79101-0.1513 0.19382-0.46399 0.5595-0.69531 0.8125-0.23175 0.25259-0.60277 0.61936-0.82617 0.81445-0.22299 0.19464-0.61922 0.51391-0.87891 0.70898-0.25925 0.19464-0.65819 0.46822-0.88867 0.60743l-0.42 0.253 0.31445 0.26758c0.17339 0.14755 0.453 0.41564 0.62305 0.5957 0.16964 0.18048 0.42287 0.46736 0.5625 0.63867 0.14005 0.17089 0.39468 0.52145 0.5664 0.77735 0.17131 0.25633 0.45693 0.75576 0.63282 1.1113 0.17631 0.35511 0.39786 0.88123 0.49414 1.168 0.0967 0.28634 0.22219 0.71806 0.2793 0.95898 0.0567 0.24049 0.13295 0.62427 0.16797 0.85351 0.0346 0.22924 0.0753 0.70696 0.0899 1.0625 0.0163 0.39971 0.007 0.8454-0.0234 1.168-0.0275 0.28634-0.0984 0.75427-0.15626 1.041-0.0575 0.28634-0.16786 0.72829-0.24414 0.98046-0.0767 0.25216-0.19895 0.61743-0.27148 0.8125-0.0725 0.19506-0.17741 0.50229-0.23242 0.68359-0.055 0.18172-0.13158 0.50101-0.16992 0.70899-0.0479 0.2605-0.0699 0.60562-0.0704 1.1074 0 0.49809 0.0217 0.84916 0.0684 1.1055 0.0379 0.20631 0.11812 0.54369 0.17773 0.75 0.0596 0.20631 0.20866 0.58575 0.33203 0.84375 0.1238 0.25801 0.32361 0.61314 0.44531 0.78906 0.12172 0.17631 0.37213 0.47849 0.5547 0.67188 0.18255 0.19298 0.48178 0.46835 0.66601 0.61132 0.18422 0.14337 0.41643 0.3129 0.51563 0.37501 0.0996 0.06207 0.36266 0.20205 0.58397 0.31249 0.22175 0.11046 0.57497 0.25921 0.78712 0.33008s0.57938 0.16985 0.81445 0.22071c0.35928 0.07796 0.5587 0.09406 1.2598 0.09576 0.6398 0.001 0.9187-0.01549 1.1992-0.07227 0.2009-0.04088 0.53826-0.13044 0.75-0.19922 0.21175-0.06877 0.57349-0.21642 0.80274-0.32813 0.22924-0.11171 0.58442-0.32328 0.78906-0.46875 0.20507-0.14546 0.52757-0.41791 0.7168-0.60547 0.18964-0.18714 0.4555-0.49043 0.59179-0.67383 0.13589-0.18381 0.34228-0.50127 0.45899-0.70508 0.11671-0.2034 0.3039-0.60164 0.41602-0.88672 0.11212-0.28509 0.29103-0.78065 0.39648-1.1016 0.10545-0.32094 0.24835-0.79078 0.31835-1.043 0.07-0.25217 0.1829-0.69217 0.25001-0.97851 0.0676-0.28677 0.16975-0.78456 0.22851-1.1055 0.0592-0.32094 0.14416-0.86513 0.1875-1.209 0.0438-0.34387 0.0978-0.86804 0.1211-1.166 0.0233-0.29802 0.0557-0.8882 0.0703-1.3125 0.015-0.43807 0.005-1.1046-0.0215-1.541-0.0259-0.42262-0.0842-1.0695-0.13086-1.4375-0.0471-0.36804-0.13122-0.9232-0.1875-1.2324-0.0567-0.30969-0.18582-0.89989-0.2871-1.3125-0.1017-0.41264-0.29072-1.0795-0.41993-1.4805-0.12921-0.40138-0.35818-1.038-0.50781-1.416-0.14963-0.37846-0.44381-1.0449-0.6543-1.4805-0.21048-0.43557-0.53804-1.0643-0.72851-1.3965-0.19048-0.33262-0.50652-0.8485-0.70117-1.1465-0.19466-0.29802-0.56577-0.82215-0.82422-1.166-0.25884-0.34387-0.61932-0.80394-0.80273-1.0215-0.1834-0.21799-0.5219-0.59745-0.75195-0.84376-0.23051-0.24634-0.66154-0.67806-0.95704-0.95898-0.2951-0.28092-0.69335-0.64364-0.88672-0.80663-0.1934-0.16297-0.53595-0.43906-0.75976-0.61328-0.22383-0.17422-0.56516-0.42958-0.75977-0.56837-0.19507-0.13838-0.36374-0.25195-0.375-0.25195zm-36.188 14.381-1.7676 0.006c-0.972 0.003-1.9308 0.01999-2.1309 0.03908-0.20007 0.01959-0.55551 0.07547-0.79101 0.12305-0.2355 0.04748-0.65352 0.16066-0.92774 0.25195-0.27425 0.09126-0.70598 0.26613-0.95898 0.38867-0.25299 0.12295-0.63787 0.34098-0.85546 0.48438-0.21758 0.14296-0.52704 0.36829-0.6875 0.5-0.16048 0.1313-0.43881 0.38299-0.61719 0.56055-0.17881 0.17798-0.43303 0.45771-0.56641 0.62109s-0.35898 0.47342-0.50196 0.69141c-0.14337 0.21757-0.36141 0.6044-0.48437 0.85742-0.12253 0.25299-0.29739 0.68277-0.38867 0.95704-0.09126 0.27425-0.20374 0.68679-0.25 0.91601-0.04588 0.22924-0.10319 0.61206-0.12695 0.84962-0.02419 0.23716-0.04488 1.197-0.04488 2.1348v1.7051h0.13672c0.07457 0 0.35785-0.02829 0.63087-0.06247 0.27258-0.03419 0.84508-0.09186 1.2715-0.12891 0.46182-0.03958 1.2298-0.06707 1.9004-0.06837 0.6473-0.000829 1.2841 0.01809 1.5 0.04688 0.20631 0.02749 0.41707 0.06127 0.46875 0.07426l0.09376 0.02349v-1.5781c0.00082-1.245 0.01369-1.6335 0.06247-1.8398 0.03378-0.14379 0.10779-0.35201 0.16405-0.46288 0.05627-0.11087 0.19523-0.30241 0.3086-0.42578 0.11337-0.12338 0.31514-0.29148 0.44727-0.3711 0.13254-0.08006 0.36473-0.1772 0.51562-0.2168 0.23508-0.06127 0.49969-0.07017 1.8672-0.07227l1.5957-0.002v-0.17774c0-0.09755-0.01889-0.33618-0.04098-0.53125-0.02169-0.19507-0.05907-0.58865-0.08206-0.87499-0.02749-0.34261-0.02659-0.81035 0-1.3672 0.02209-0.46557 0.07786-1.2166 0.125-1.668 0.04668-0.4514 0.09566-0.94692 0.10938-1.1016zm16.963 0-0.15039 0.32813c-0.08256 0.1809-0.20326 0.46553-0.26953 0.63476-0.06667 0.1688-0.17199 0.45723-0.23242 0.64062-0.06047 0.1834-0.15579 0.5408-0.21289 0.79297-0.05707 0.25216-0.12609 0.69627-0.15234 0.98633-0.03588 0.38889-0.03578 0.65113-0.002 0.99999 0.02499 0.26009 0.09496 0.72979 0.15625 1.0449l0.11133 0.57422h15.156l0.0235-0.07427c0.0121-0.03998 0.0719-0.3353 0.13476-0.65624 0.10171-0.52143 0.11481-0.67664 0.11523-1.459 0-0.72858-0.0151-0.9554-0.0917-1.3613-0.0508-0.268-0.16919-0.71977-0.26172-1.002-0.0926-0.28176-0.27495-0.71852-0.40625-0.9707l-0.23828-0.45899-6.8398-0.01zm30.793 0v0.08206c0 0.04498 0.0469 0.36822 0.10351 0.71874 0.0572 0.35012 0.12385 0.89971 0.14843 1.2207 0.0259 0.33719 0.0337 0.98665 0.0195 1.541-0.0137 0.52726-0.0435 1.2318-0.0664 1.5645-0.0225 0.3322-0.0531 0.66368-0.0664 0.73829l-0.0234 0.13672h1.5781c1.245 0.00083 1.6335 0.01379 1.8398 0.06247 0.1438 0.03378 0.35202 0.1078 0.46289 0.16406 0.11087 0.05627 0.30241 0.19522 0.42578 0.30859 0.12337 0.11338 0.28954 0.31514 0.36914 0.44727 0.0801 0.13254 0.17721 0.36278 0.2168 0.51367 0.0613 0.23508 0.0721 0.50163 0.0743 1.8691l0.002 1.5937h0.17774c0.0976 0 0.33618-0.01889 0.53125-0.04098 0.19506-0.02169 0.58866-0.05717 0.87499-0.08006 0.34262-0.02749 0.81036-0.02889 1.3672-0.002 0.46556 0.02209 1.2165 0.07986 1.668 0.12695 0.4514 0.04668 0.94691 0.09556 1.1016 0.10938l0.28125 0.02539v-1.6836c0-0.92612-0.0192-1.8905-0.043-2.1426-0.0238-0.25216-0.0807-0.64576-0.12695-0.87499-0.0463-0.22924-0.15873-0.64178-0.25001-0.91601-0.0912-0.27426-0.26612-0.70599-0.38867-0.95899-0.12296-0.253-0.33441-0.62765-0.47071-0.83398-0.13628-0.20632-0.36049-0.51773-0.49803-0.68945-0.13713-0.17215-0.39429-0.45678-0.57228-0.63476-0.17797-0.17798-0.45882-0.43415-0.62304-0.56836-0.16423-0.1338-0.47733-0.36052-0.69531-0.5039-0.21757-0.14296-0.60135-0.35946-0.85352-0.48243-0.25217-0.12338-0.68389-0.29933-0.95898-0.39062-0.27509-0.09086-0.68678-0.20374-0.91602-0.25-0.22925-0.04628-0.62478-0.10319-0.87696-0.12695-0.25216-0.02379-1.2119-0.04298-2.1348-0.04298zm-55.066 12.76c-0.33219 0.003-0.85828 0.02069-1.168 0.03908-0.30927 0.01829-0.83151 0.06447-1.1621 0.10156-0.33053 0.03748-0.82832 0.103-1.1055 0.14843-0.27676 0.04498-0.80275 0.14778-1.1699 0.22656-0.36679 0.07876-0.95934 0.226-1.3144 0.32813-0.35512 0.10212-0.86948 0.26392-1.1445 0.35937-0.27509 0.09506-0.72491 0.26302-1 0.37305-0.27508 0.11004-0.74608 0.3118-1.0449 0.44727-0.29885 0.13546-0.81469 0.39304-1.1465 0.57226-0.33137 0.17923-0.8229 0.46008-1.0918 0.62305-0.26884 0.16338-0.76504 0.48729-1.1035 0.7207-0.33844 0.23299-0.90616 0.65782-1.2617 0.94335-0.35511 0.28552-0.91888 0.77123-1.252 1.0801-0.33302 0.30843-0.82929 0.8029-1.1035 1.0996-0.27425 0.29635-0.65674 0.72624-0.84766 0.95508-0.1909 0.22841-0.48212 0.59453-0.64844 0.8125-0.1663 0.21757-0.4079 0.54652-0.53711 0.73242l-0.23633 0.33789 0.59375 0.02739c0.32594 0.01499 0.78121 0.05447 1.0117 0.08786 0.2309 0.03339 0.61427 0.1012 0.85351 0.15039 0.23925 0.04958 0.65257 0.15476 0.91602 0.23437 0.26384 0.07966 0.65742 0.21016 0.87499 0.29101 0.218 0.08086 0.62898 0.25907 0.91406 0.39454 0.2851 0.13588 0.75737 0.38939 1.0508 0.56445s0.74913 0.47863 1.0117 0.67578c0.26259 0.19715 0.67582 0.53493 0.91797 0.75 0.24217 0.21508 0.63251 0.60583 0.86719 0.86719 0.23507 0.26176 0.58616 0.6887 0.78125 0.94922 0.19507 0.26051 0.46821 0.66204 0.60743 0.89257l0.2539 0.41798 0.24219-0.28907c0.13338-0.16004 0.42574-0.46769 0.6504-0.68359 0.22508-0.21591 0.5839-0.53223 0.79687-0.70312 0.2134-0.17089 0.59352-0.44556 0.84571-0.60938 0.25216-0.1638 0.65598-0.39894 0.89648-0.52149 0.24092-0.12295 0.59832-0.28759 0.79297-0.36719 0.19507-0.08006 0.5396-0.20635 0.76757-0.2793 0.22841-0.07297 0.62396-0.17628 0.87696-0.23046 0.25341-0.05378 0.63788-0.12163 0.85546-0.15039 0.21758-0.02879 0.71576-0.05008 1.1055-0.04878 0.49683 0.002 0.88215 0.02819 1.291 0.08986 0.32094 0.04838 0.82852 0.15128 1.127 0.23047 0.29802 0.07876 0.786 0.23006 1.084 0.33593 0.2976 0.10587 0.67156 0.22169 0.83203 0.25586 0.16047 0.03378 0.5922 0.08126 0.95898 0.10547 0.36679 0.02419 0.91921 0.03019 1.2285 0.01559 0.30969-0.01499 0.70367-0.04658 0.87499-0.07027 0.1709-0.02339 0.48709-0.08786 0.70508-0.14453 0.21757-0.05667 0.57177-0.17643 0.78515-0.26563 0.21299-0.08916 0.53773-0.25058 0.7207-0.35937 0.18298-0.1092 0.4895-0.32388 0.68164-0.47852 0.19215-0.15464 0.46712-0.41487 0.61133-0.57617 0.14463-0.16172 0.37038-0.44132 0.50001-0.62305 0.13004-0.18172 0.32045-0.49623 0.42382-0.69921 0.10378-0.20298 0.23769-0.4997 0.29687-0.66016 0.05957-0.16048 0.1478-0.43375 0.19532-0.60547 0.04748-0.17214 0.11314-0.48946 0.14648-0.70703 0.03338-0.21799 0.06057-0.6598 0.06057-0.98242 0.00042-0.35054-0.02639-0.74579-0.06637-0.98046-0.03708-0.21632-0.11212-0.55298-0.16797-0.74805-0.05587-0.19507-0.20167-0.56285-0.32422-0.81836-0.12212-0.2555-0.30244-0.58263-0.40038-0.72851-0.09835-0.14588-0.30183-0.41329-0.45313-0.59375-0.15088-0.18048-0.44618-0.47185-0.65624-0.64649-0.21007-0.17464-0.54281-0.41694-0.73829-0.53906-0.1959-0.12253-0.59524-0.33147-0.88867-0.46484-0.29385-0.13338-0.77819-0.33151-1.0762-0.43946-0.29801-0.10753-0.82486-0.27579-1.1699-0.375-0.34512-0.09915-0.93528-0.24728-1.3125-0.32813-0.3768-0.08046-0.93836-0.1842-1.248-0.23047-0.30927-0.04668-0.8358-0.11231-1.168-0.14648-0.33219-0.03458-1.007-0.08176-1.5-0.10547-0.49267-0.02339-1.1678-0.04038-1.5-0.03708zm62.209 0.002c-0.36679 0.005-0.79849 0.01319-0.95898 0.01949-0.16048 0.006-0.59221 0.03208-0.95898 0.05667-0.36679 0.02499-0.95695 0.08226-1.3125 0.12695-0.35512 0.04498-0.91595 0.12915-1.2461 0.1875-0.3297 0.05797-0.93083 0.18931-1.3359 0.29102-0.40514 0.10169-1.0089 0.27501-1.3398 0.38672-0.33093 0.11128-0.81047 0.28908-1.0664 0.39453-0.25592 0.10503-0.6216 0.26937-0.8125 0.36524-0.19131 0.09586-0.4782 0.2595-0.63867 0.36328-0.16047 0.10337-0.42352 0.29602-0.58398 0.42773-0.16048 0.1313-0.39591 0.34779-0.52345 0.48243-0.12795 0.13463-0.34641 0.3981-0.48437 0.58398-0.13797 0.18631-0.34507 0.52367-0.46094 0.75-0.11587 0.22673-0.26786 0.57424-0.33789 0.77344-0.0701 0.19966-0.16508 0.55891-0.21093 0.79688-0.0459 0.238-0.0979 0.62902-0.11329 0.86914-0.0171 0.26301-0.007 0.63346 0.0235 0.9336 0.028 0.27384 0.10532 0.70695 0.16993 0.96289 0.0647 0.25633 0.19837 0.65973 0.29882 0.89648 0.10045 0.23674 0.26226 0.56654 0.35938 0.73243 0.0976 0.16589 0.28837 0.44884 0.42383 0.6289 0.13587 0.17965 0.42388 0.49557 0.64062 0.70313 0.21716 0.20715 0.55087 0.48071 0.74219 0.60742 0.19131 0.1263 0.48591 0.29862 0.6543 0.38281 0.16839 0.08416 0.49552 0.21545 0.72851 0.29297 0.233 0.07756 0.57007 0.17077 0.74805 0.20703 0.1784 0.03628 0.56217 0.08676 0.85351 0.11133 0.31178 0.02629 0.84023 0.03388 1.2813 0.01759 0.41263-0.01539 0.90671-0.05697 1.0976-0.08986 0.19048-0.03288 0.70481-0.17975 1.1445-0.32813 0.43973-0.14797 1.0145-0.31818 1.2754-0.37695 0.26092-0.05877 0.67259-0.13603 0.91602-0.17188 0.26842-0.03918 0.73819-0.06557 1.1934-0.06637 0.48184-0.001 0.9413 0.02399 1.2852 0.07027 0.29426 0.03918 0.75431 0.12597 1.0215 0.19141 0.26718 0.06547 0.68333 0.18658 0.92383 0.26952 0.24091 0.08256 0.71864 0.28824 1.0625 0.45704s0.84987 0.45612 1.125 0.63867c0.27509 0.18296 0.71121 0.51459 0.96876 0.73633 0.25758 0.22174 0.61499 0.56599 0.79296 0.76562 0.17799 0.19923 0.39238 0.44587 0.47657 0.54882 0.0847 0.10254 0.16187 0.17729 0.17187 0.16602 0.01-0.0108 0.12792-0.19844 0.26172-0.41602 0.13422-0.21799 0.40624-0.61159 0.60547-0.875 0.19922-0.26385 0.51948-0.65158 0.71288-0.86328 0.1934-0.21132 0.53802-0.55639 0.76564-0.76562 0.22756-0.20923 0.61888-0.53496 0.87108-0.72461 0.25216-0.18922 0.61785-0.44722 0.8125-0.57226 0.19506-0.12504 0.52415-0.32065 0.73047-0.4336 0.20632-0.11296 0.58182-0.30084 0.83398-0.41796 0.25217-0.11712 0.66929-0.29016 0.92774-0.38477 0.25883-0.09506 0.63433-0.22136 0.83398-0.27929 0.20007-0.05797 0.56563-0.15118 0.81447-0.20703 0.24842-0.05627 0.70846-0.13858 1.0215-0.1836 0.31302-0.04538 0.76107-0.09596 0.99609-0.11133 0.23508-0.01589 0.42816-0.03898 0.42774-0.05277-0.00042-0.01419-0.17316-0.27033-0.38282-0.56836-0.20923-0.29801-0.59008-0.80408-0.84765-1.125-0.25718-0.32094-0.71032-0.84592-1.0059-1.166-0.29551-0.32052-0.80055-0.82363-1.1211-1.1191-0.3201-0.29551-0.84314-0.7494-1.1641-1.0078-0.32094-0.25842-0.78054-0.60926-1.0215-0.7793-0.2405-0.17047-0.64432-0.44222-0.89649-0.60352-0.25217-0.16172-0.64137-0.39856-0.86523-0.52734-0.22382-0.12879-0.65555-0.36434-0.95899-0.52148-0.30342-0.15714-0.85202-0.41641-1.2188-0.57813-0.36679-0.1613-0.94986-0.39798-1.2949-0.52344-0.34552-0.12588-0.92014-0.31516-1.2773-0.42187-0.35679-0.1067-0.92709-0.25982-1.2676-0.33984-0.34095-0.08046-0.93838-0.2009-1.3281-0.26758-0.38972-0.06707-0.97989-0.15167-1.3125-0.1875-0.3322-0.03588-0.91492-0.08296-1.293-0.10547-0.37803-0.02249-0.98671-0.03728-1.3535-0.03319zm-80.334 11.725c-0.46973-0.009-1.0143 0.002-1.209 0.02149-0.19465 0.02039-0.53201 0.06677-0.75 0.10351-0.21758 0.03708-0.57778 0.11365-0.80079 0.16992-0.22299 0.05627-0.5793 0.15962-0.79101 0.23047-0.21174 0.07087-0.55888 0.20364-0.77148 0.29492-0.21215 0.09126-0.59593 0.27958-0.85352 0.41797-0.258 0.13838-0.63898 0.36441-0.8457 0.50196-0.20674 0.13755-0.5535 0.39106-0.77149 0.56445-0.21757 0.17339-0.59572 0.51371-0.83789 0.75586-0.24258 0.24217-0.59008 0.63004-0.77344 0.86133-0.18382 0.23133-0.4421 0.58467-0.57421 0.78515-0.13213 0.20048-0.3433 0.55411-0.46875 0.78711-0.12546 0.23299-0.30901 0.61286-0.4082 0.84375-0.09965 0.23133-0.23999 0.59701-0.3125 0.8125-0.07247 0.21591-0.18763 0.6194-0.2539 0.89453-0.06627 0.27509-0.15336 0.71468-0.19336 0.97851-0.05418 0.3547-0.07227 0.73416-0.07227 1.459 0 0.72816 0.01729 1.1026 0.07227 1.459 0.04038 0.26341 0.11082 0.63891 0.15625 0.83398 0.04498 0.19465 0.1311 0.51827 0.18945 0.71875 0.05837 0.20006 0.18021 0.55551 0.27148 0.79101 0.09166 0.23508 0.26627 0.62429 0.38672 0.86524 0.12045 0.2405 0.32839 0.61644 0.46094 0.83398 0.13296 0.21799 0.36979 0.56773 0.52734 0.77734 0.15797 0.20965 0.44345 0.55529 0.63476 0.76953 0.19131 0.21465 0.49601 0.52384 0.67773 0.68555 0.18174 0.16215 0.46063 0.39939 0.6211 0.52735 0.16046 0.12755 0.46992 0.34951 0.6875 0.49414 0.21799 0.14504 0.65952 0.39858 0.98046 0.56445 0.32094 0.1659 0.77905 0.3793 1.0195 0.47265 0.24049 0.0938 0.63376 0.22658 0.87304 0.29493 0.23883 0.0688 0.61429 0.15977 0.83398 0.20312 0.21966 0.0438 0.57739 0.10393 0.79492 0.13477 0.23675 0.0334 0.76444 0.0555 1.3125 0.0547 0.65646-0.00075 1.0599-0.0232 1.418-0.0762 0.2751-0.0409 0.65887-0.10971 0.85352-0.1543 0.19507-0.0451 0.52414-0.13181 0.73047-0.19141 0.20631-0.0596 0.56177-0.18256 0.79101-0.27343 0.22924-0.0905 0.63516-0.27399 0.90235-0.40821 0.26718-0.13463 0.64267-0.34173 0.83398-0.46094 0.19131-0.1192 0.51928-0.34523 0.72851-0.50195 0.20965-0.15713 0.55725-0.4415 0.77149-0.63281 0.21465-0.19132 0.52187-0.49601 0.68359-0.67773 0.16213-0.18173 0.39938-0.46258 0.52734-0.62305 0.12754-0.16047 0.35147-0.46993 0.49609-0.6875 0.14505-0.218 0.39816-0.65757 0.56446-0.97852 0.16589-0.32094 0.37088-0.76291 0.45508-0.98047 0.08376-0.21799 0.20604-0.56906 0.27148-0.78125 0.06547-0.21215 0.16443-0.60573 0.2207-0.875 0.05587-0.26925 0.12778-0.66918 0.15821-0.88672 0.03289-0.23508 0.05547-0.76817 0.05467-1.3125-0.00082-0.6498-0.02449-1.0617-0.07616-1.416-0.03998-0.27509-0.10886-0.66081-0.1543-0.85546-0.04498-0.19506-0.1311-0.51828-0.18945-0.71876-0.05837-0.20007-0.17909-0.55387-0.26952-0.78515-0.08996-0.23239-0.26001-0.6118-0.37695-0.84571-0.11695-0.23238-0.2611-0.50591-0.32031-0.60937-0.05927-0.1027-0.21979-0.35635-0.35548-0.56251-0.13569-0.20615-0.35108-0.50753-0.47852-0.66797-0.12819-0.16043-0.36467-0.43968-0.52734-0.62109-0.16118-0.18216-0.46844-0.48657-0.68359-0.67773-0.21365-0.19191-0.56445-0.479-0.77734-0.63867-0.21291-0.16042-0.59096-0.41498-0.83985-0.56641-0.24888-0.15143-0.62619-0.35703-0.83984-0.45899-0.2144-0.10195-0.57107-0.258-0.79297-0.3457-0.2219-0.08776-0.57119-0.21031-0.77735-0.26953-0.20615-0.05997-0.53556-0.14641-0.73047-0.1914-0.19416-0.04498-0.55037-0.11171-0.79101-0.14844-0.24963-0.03828-0.80644-0.07386-1.293-0.08206zm99.037 0c-0.46974-0.009-1.0139 0.002-1.209 0.02149-0.19465 0.02039-0.53202 0.06677-0.75001 0.10351-0.21756 0.03708-0.57973 0.11365-0.80272 0.16992s-0.57735 0.15962-0.78906 0.23047c-0.21175 0.07087-0.55889 0.20364-0.77149 0.29492-0.21216 0.09126-0.59789 0.27958-0.85547 0.41797-0.258 0.13838-0.63703 0.36441-0.84375 0.50196-0.20674 0.13755-0.55545 0.39106-0.77343 0.56445-0.21757 0.17339-0.59378 0.51371-0.83594 0.75586-0.24259 0.24217-0.59009 0.63004-0.77344 0.86133-0.18382 0.23133-0.4421 0.58467-0.57423 0.78515-0.13212 0.20048-0.34328 0.55411-0.46874 0.78711-0.12546 0.23299-0.31095 0.61286-0.41016 0.84375-0.0996 0.23133-0.23997 0.59701-0.3125 0.8125-0.0725 0.21591-0.18569 0.6194-0.25195 0.89453-0.0663 0.27509-0.15334 0.71468-0.19336 0.97851-0.0542 0.3547-0.0742 0.73416-0.0742 1.459 0 0.72816 0.0192 1.1026 0.0742 1.459 0.0404 0.26341 0.11082 0.63891 0.15625 0.83398 0.045 0.19465 0.12914 0.51827 0.1875 0.71875 0.0583 0.20006 0.18215 0.55551 0.27344 0.79101 0.0917 0.23508 0.2643 0.62429 0.38476 0.86524 0.12045 0.2405 0.32841 0.61644 0.46094 0.83398 0.13296 0.21799 0.37174 0.56773 0.5293 0.77734 0.15796 0.20965 0.4415 0.55529 0.63281 0.76953 0.19132 0.21465 0.496 0.52384 0.67774 0.68555 0.18172 0.16215 0.46256 0.39939 0.62304 0.52735 0.16047 0.12755 0.46993 0.34951 0.6875 0.49414 0.21799 0.14504 0.65757 0.39858 0.97851 0.56445 0.32094 0.1659 0.781 0.3793 1.0215 0.47265 0.2405 0.0938 0.63181 0.22658 0.87109 0.29493 0.23882 0.0688 0.61429 0.15977 0.83399 0.20312 0.21966 0.0438 0.57934 0.10393 0.79687 0.13477 0.23675 0.0334 0.76443 0.0555 1.3125 0.0547 0.65646-0.00075 1.058-0.0232 1.416-0.0762 0.27509-0.0409 0.66082-0.10971 0.85547-0.1543 0.19507-0.0451 0.52219-0.13181 0.72851-0.19141s0.56373-0.18256 0.79297-0.27343c0.22925-0.0905 0.63517-0.27399 0.90234-0.40821 0.26718-0.13463 0.64268-0.34173 0.834-0.46094 0.19131-0.1192 0.51927-0.34523 0.72851-0.50195 0.20966-0.15713 0.55725-0.4415 0.77148-0.63281 0.21466-0.19132 0.52188-0.49601 0.6836-0.67773 0.16214-0.18173 0.39938-0.46258 0.52734-0.62305 0.12754-0.16047 0.34951-0.46993 0.49414-0.6875 0.14505-0.218 0.40011-0.65757 0.56641-0.97852 0.16589-0.32094 0.37088-0.76291 0.45508-0.98047 0.0838-0.21799 0.20604-0.56906 0.27148-0.78125 0.0655-0.21215 0.16442-0.60573 0.2207-0.875 0.0559-0.26925 0.12778-0.66918 0.1582-0.88672 0.0329-0.23508 0.0536-0.76817 0.0528-1.3125-0.00075-0.6498-0.0225-1.0617-0.0742-1.416-0.04-0.27509-0.11082-0.66081-0.15625-0.85546-0.045-0.19506-0.12914-0.51828-0.1875-0.71876-0.0583-0.20007-0.17908-0.55387-0.26953-0.78515-0.0901-0.23175-0.25984-0.61035-0.37695-0.84375-0.11671-0.23299-0.26113-0.50836-0.32032-0.61132-0.0593-0.10337-0.21959-0.35618-0.35547-0.56251-0.13588-0.20631-0.35097-0.5075-0.47851-0.66797-0.12796-0.16047-0.36521-0.43937-0.52734-0.62109-0.16172-0.18174-0.46894-0.48641-0.6836-0.67773-0.21423-0.19131-0.56433-0.47862-0.77734-0.63867-0.21299-0.16005-0.59105-0.41356-0.83985-0.56445-0.24883-0.1513-0.62799-0.35883-0.8418-0.46095-0.21382-0.10212-0.56927-0.25776-0.79101-0.3457-0.22174-0.08796-0.57301-0.20993-0.7793-0.26953-0.20632-0.05997-0.53344-0.14444-0.72851-0.18945-0.19465-0.04498-0.5501-0.11371-0.79102-0.15039-0.24925-0.03798-0.80659-0.07327-1.293-0.08206zm-18.682 2.5273c-0.1488 0.004-0.33752 0.01319-0.41796 0.02149-0.0805 0.008-0.27703 0.03528-0.43751 0.05857-0.16046 0.02289-0.50177 0.08096-0.75977 0.1289l-0.46874 0.08596v15.156l0.0723 0.0235c0.0401 0.0121 0.3353 0.0719 0.65624 0.13477 0.52143 0.10171 0.67665 0.11481 1.459 0.11523 0.734 0 0.95573-0.015 1.375-0.0938 0.2751-0.0518 0.72492-0.17044 1-0.26172 0.27509-0.0917 0.70682-0.27301 0.95898-0.4043l0.45899-0.23828 0.01-6.8379 0.0117-6.8359-0.30274-0.16797c-0.1663-0.09256-0.46118-0.23584-0.65625-0.31836-0.19507-0.08296-0.51825-0.19793-0.71874-0.25586-0.20091-0.05797-0.52018-0.13338-0.70899-0.16796-0.18923-0.03498-0.55056-0.08256-0.80274-0.10547-0.25216-0.02329-0.57972-0.04078-0.72851-0.03708zm-61.959 0.01559c-0.32094-0.009-0.75268 0.00062-0.95898 0.02149-0.20631 0.02079-0.57158 0.07706-0.8125 0.125-0.24049 0.04748-0.62906 0.15016-0.86328 0.22851-0.23466 0.07796-0.61112 0.23428-0.83789 0.34766-0.22673 0.11337-0.45319 0.23129-0.50196 0.26172l-0.08986 0.05667 0.0117 6.8359 0.01 6.834 0.45899 0.23828c0.25217 0.1313 0.68893 0.31567 0.97071 0.40821 0.28217 0.0926 0.73199 0.2089 1 0.25976 0.40597 0.0767 0.63472 0.0918 1.3633 0.0918 0.78234-0.00043 0.93752-0.0116 1.459-0.11329 0.32094-0.063 0.61623-0.12462 0.65626-0.13671l0.07427-0.0235v-15.152l-0.30274-0.06837c-0.1663-0.03798-0.47141-0.09935-0.67773-0.13477-0.20631-0.03538-0.63804-0.07247-0.95898-0.08206zm69.768 13.945-0.26758 0.31445c-0.14755 0.17298-0.40794 0.44947-0.58008 0.61329-0.17172 0.16338-0.45945 0.41619-0.63867 0.56249-0.17965 0.14589-0.53705 0.40641-0.79297 0.57813-0.25633 0.1713-0.75577 0.45496-1.1113 0.63086-0.35511 0.17631-0.88122 0.39981-1.168 0.49609-0.28634 0.0967-0.71612 0.2222-0.95703 0.2793-0.24049 0.0567-0.62622 0.13294-0.85547 0.16796-0.22924 0.0346-0.70696 0.0753-1.0625 0.0899-0.39972 0.0163-0.8454 0.006-1.168-0.0254-0.28634-0.0275-0.75427-0.0964-1.041-0.1543-0.28634-0.0575-0.7283-0.16787-0.98047-0.24414-0.25217-0.0767-0.61743-0.19896-0.8125-0.27149-0.19507-0.0725-0.50229-0.1774-0.68359-0.23242-0.18174-0.055-0.50101-0.13158-0.70899-0.16992-0.2605-0.0479-0.60563-0.0698-1.1074-0.0703-0.49808 0-0.84916 0.0218-1.1055 0.0684-0.20631 0.038-0.54368 0.1166-0.75 0.17578-0.20631 0.0588-0.618 0.22787-0.91601 0.37501-0.30052 0.14797-0.70049 0.38706-0.89845 0.53711-0.19589 0.1488-0.52904 0.44915-0.73827 0.66796-0.20924 0.21883-0.49444 0.57073-0.63282 0.78125-0.13879 0.21049-0.33426 0.55329-0.43554 0.76172-0.10129 0.2084-0.24206 0.55152-0.3125 0.76367-0.0705 0.21215-0.16986 0.57742-0.22071 0.8125-0.078 0.35928-0.094 0.56066-0.0957 1.2617-0.001 0.6398 0.0175 0.9187 0.0743 1.1992 0.0409 0.2009 0.13045 0.53827 0.19922 0.75 0.0688 0.21174 0.21643 0.57154 0.32813 0.80078 0.11171 0.22925 0.32133 0.58442 0.46679 0.78907 0.14546 0.20506 0.41792 0.52756 0.60548 0.71679 0.18713 0.18964 0.49142 0.45775 0.67773 0.59571 0.1859 0.13796 0.52199 0.35234 0.74414 0.47655 0.22257 0.1238 0.5832 0.29653 0.80078 0.38282 0.21799 0.0859 0.63949 0.23855 0.9375 0.33984 0.29802 0.10129 0.80294 0.25834 1.123 0.34961 0.32054 0.0913 0.81828 0.22195 1.1055 0.28906 0.28718 0.0676 0.78454 0.16975 1.1055 0.22852 0.32095 0.0593 0.86512 0.14416 1.209 0.1875 0.34386 0.0438 0.86999 0.0973 1.168 0.12109 0.29801 0.0233 0.88819 0.0557 1.3125 0.0704 0.43806 0.015 1.1026 0.005 1.5391-0.0215 0.42264-0.0263 1.0695-0.0858 1.4375-0.13281 0.36804-0.0467 0.96846-0.1391 1.334-0.20704 0.36512-0.0684 0.99204-0.20954 1.3926-0.31249 0.40055-0.10253 1.0217-0.28174 1.3789-0.39844 0.35761-0.11671 0.95984-0.33363 1.3379-0.48242 0.37846-0.1488 1.0633-0.45279 1.5234-0.67578 0.45973-0.22341 1.0881-0.55166 1.3965-0.73047 0.30801-0.17881 0.8035-0.48545 1.1016-0.67969 0.29802-0.19464 0.79421-0.54139 1.1035-0.77149 0.30968-0.23008 0.77622-0.59843 1.0371-0.8164 0.26091-0.2184 0.66474-0.57568 0.89648-0.79492 0.23175-0.21924 0.65001-0.63639 0.92969-0.92774 0.27968-0.29134 0.68588-0.74342 0.90429-1.0039 0.21842-0.26092 0.5824-0.71986 0.80664-1.0195 0.22423-0.29968 0.43891-0.59892 0.47852-0.66602l0.0723-0.12305-0.57226-0.0274c-0.31468-0.015-0.79721-0.0633-1.0723-0.10742-0.27509-0.0438-0.66868-0.11739-0.875-0.16407-0.20632-0.0467-0.50556-0.12507-0.66602-0.17383-0.16046-0.0488-0.47974-0.15547-0.70898-0.23633-0.22925-0.0813-0.62141-0.24097-0.8711-0.35351-0.25008-0.11212-0.64368-0.30829-0.875-0.4375-0.23175-0.12921-0.57965-0.34038-0.77343-0.46875-0.1934-0.12796-0.5152-0.3551-0.71485-0.50391-0.19964-0.14922-0.5806-0.46443-0.8457-0.70117-0.26468-0.23716-0.66482-0.63736-0.88868-0.88866-0.22425-0.25177-0.56663-0.6696-0.76172-0.92969-0.19463-0.26009-0.46821-0.66207-0.60741-0.89259zm-77.883 0.17188c-0.01669-0.007-0.04358 0.0263-0.05857 0.0743-0.01499 0.0476-0.19813 0.3431-0.4082 0.65821-0.21049 0.31468-0.53158 0.75729-0.7129 0.98242-0.18089 0.22507-0.53634 0.61821-0.79101 0.87499-0.25425 0.25675-0.67626 0.64025-0.93554 0.85157-0.25967 0.21174-0.70949 0.54335-1 0.73632-0.29092 0.1934-0.76208 0.47383-1.0488 0.62305-0.28635 0.1488-0.68189 0.33852-0.87696 0.42188-0.19464 0.0834-0.59651 0.23535-0.89452 0.33789-0.29802 0.10211-0.75769 0.24233-1.0215 0.3086-0.26342 0.0668-0.6883 0.15727-0.94336 0.20312-0.25508 0.0459-0.7049 0.1046-1 0.13086-0.29509 0.0263-0.62895 0.0612-0.74024 0.0762l-0.20117 0.0274 0.35742 0.50196c0.19715 0.27634 0.55663 0.74619 0.79883 1.043 0.24258 0.29634 0.68456 0.80348 0.98046 1.127 0.29593 0.32344 0.81343 0.84297 1.1523 1.1543 0.33844 0.31135 0.76585 0.69116 0.94922 0.84375 0.1834 0.15297 0.57894 0.46131 0.87695 0.68555 0.29802 0.22422 0.79421 0.57535 1.1035 0.78124 0.3097 0.20548 0.79762 0.51102 1.084 0.67774 0.28677 0.16672 0.84902 0.46901 1.25 0.66992 0.40139 0.20048 0.9561 0.45793 1.2324 0.57422 0.27676 0.11587 0.75447 0.3046 1.0625 0.41796 0.30802 0.11337 0.82029 0.28347 1.1387 0.37892 0.31843 0.0951 0.8445 0.2365 1.168 0.31444 0.32344 0.0776 0.85924 0.18815 1.1914 0.2461 0.33262 0.058 0.83035 0.13337 1.1055 0.16797 0.27509 0.0346 0.79921 0.0852 1.166 0.11133 0.41264 0.0296 1.1596 0.0376 1.959 0.0235 0.71065-0.0129 1.556-0.0514 1.877-0.086 0.32094-0.0346 0.85533-0.10358 1.1875-0.15234 0.3322-0.0487 0.92208-0.15352 1.3106-0.23438 0.38805-0.0805 1.0628-0.24702 1.5-0.36914 0.43681-0.12213 1.0192-0.2995 1.293-0.39454 0.27383-0.0947 0.68552-0.24856 0.91601-0.33984 0.23049-0.0913 0.56069-0.24146 0.73242-0.33398 0.17214-0.0926 0.47179-0.27467 0.66602-0.4043 0.19423-0.13004 0.54718-0.42351 0.78515-0.65234 0.23758-0.22841 0.5525-0.57405 0.69922-0.76953 0.14714-0.19506 0.37975-0.57423 0.51563-0.8418 0.1363-0.26801 0.30386-0.67141 0.37305-0.89648 0.06877-0.22508 0.15838-0.57884 0.19922-0.78516 0.05627-0.2826 0.07437-0.56588 0.07227-1.1465-0.002-0.62979-0.01869-0.84837-0.09376-1.1973-0.05048-0.23507-0.15138-0.60035-0.22266-0.8125-0.07087-0.21215-0.2115-0.55541-0.31445-0.76172-0.10295-0.20633-0.2865-0.52559-0.4082-0.70898-0.1217-0.1834-0.33399-0.46159-0.4707-0.61915-0.13672-0.15755-0.37761-0.39843-0.53516-0.53515-0.15756-0.1367-0.42747-0.34282-0.59961-0.45703-0.17172-0.1142-0.48118-0.28752-0.6875-0.38672-0.20631-0.0992-0.55267-0.23746-0.77148-0.30664-0.21841-0.0696-0.566-0.16186-0.77148-0.20313-0.28802-0.0575-0.56953-0.0727-1.2285-0.0723-0.72941 0.00075-0.91716 0.0129-1.291 0.0937-0.24092 0.0517-0.8511 0.23383-1.3555 0.4043-0.50434 0.17007-1.1297 0.35767-1.3906 0.41602-0.26093 0.0588-0.67456 0.13603-0.91797 0.17187-0.26842 0.0392-0.73819 0.0656-1.1934 0.0664-0.48392 0.001-0.94176-0.0236-1.291-0.0703-0.29801-0.04-0.80302-0.13677-1.1211-0.2168-0.31843-0.0796-0.8149-0.23609-1.1055-0.34571-0.29052-0.10962-0.75312-0.31308-1.0273-0.45311-0.27384-0.14006-0.67656-0.37084-0.89453-0.51173-0.21757-0.14046-0.5709-0.39663-0.78516-0.56835-0.21466-0.17215-0.5223-0.43576-0.68359-0.5879-0.16172-0.15213-0.42505-0.42793-0.58594-0.61132-0.1613-0.1834-0.30714-0.33862-0.32422-0.3457zm54.189 12.475c-0.30969-0.009-0.72105 0.004-0.91407 0.0274-0.19298 0.023-0.56234 0.0951-0.8203 0.16015-0.25801 0.065-0.66174 0.20033-0.89844 0.30078-0.23675 0.10045-0.56654 0.26226-0.73242 0.35937-0.1659 0.0976-0.44885 0.28838-0.62891 0.42384-0.17965 0.13587-0.49556 0.42388-0.70312 0.64062-0.20716 0.21716-0.48072 0.55087-0.60743 0.74219-0.12629 0.19131-0.29862 0.48396-0.38281 0.65234-0.0842 0.16839-0.21545 0.49748-0.29297 0.73047-0.0776 0.233-0.17078 0.56882-0.20703 0.74805-0.0367 0.17881-0.0864 0.57239-0.11133 0.875-0.0267 0.32552-0.0343 0.84742-0.0176 1.2793 0.0154 0.40096 0.0561 0.88892 0.0899 1.084 0.0337 0.19465 0.1716 0.67798 0.30664 1.0723 0.13462 0.39472 0.29363 0.90863 0.35156 1.1445 0.0575 0.23633 0.13254 0.59693 0.16796 0.80078 0.0355 0.2034 0.0857 0.62965 0.10938 0.94727 0.0308 0.40889 0.0288 0.7551-0.004 1.1894-0.0254 0.33721-0.082 0.82559-0.12695 1.084-0.0451 0.25842-0.14765 0.70106-0.22851 0.98242-0.0809 0.28135-0.21477 0.68037-0.29688 0.88672-0.0821 0.20674-0.24209 0.56078-0.35547 0.78711-0.11337 0.22674-0.31037 0.57968-0.4375 0.78516-0.12712 0.20548-0.34152 0.52193-0.47656 0.70117-0.13505 0.17923-0.40272 0.50202-0.5957 0.71875-0.19298 0.21674-0.56459 0.5763-0.82422 0.79883-0.25926 0.22259-0.47506 0.41817-0.48048 0.43359-0.005 0.015 0.17056 0.13686 0.39063 0.27148 0.22049 0.13421 0.61846 0.40806 0.88477 0.60938 0.26676 0.20091 0.65308 0.52017 0.85937 0.70899 0.20632 0.18881 0.55029 0.53347 0.76368 0.76562 0.2134 0.23175 0.52861 0.60583 0.70117 0.83008 0.17255 0.22465 0.45299 0.6247 0.62305 0.89062 0.17005 0.26593 0.44796 0.75903 0.61718 1.0938 0.16923 0.33512 0.39343 0.82628 0.49805 1.0918 0.1042 0.26509 0.25661 0.70072 0.33789 0.96875 0.0813 0.26801 0.19332 0.68963 0.25 0.93555 0.0563 0.24632 0.13928 0.71034 0.18555 1.0312 0.0463 0.32094 0.0978 0.77468 0.11328 1.0098 0.0158 0.23507 0.0365 0.42773 0.0469 0.42773 0.01 0 0.23632-0.14947 0.50391-0.33204 0.26718-0.18255 0.77771-0.56573 1.1328-0.8496 0.35554-0.28343 0.9076-0.75902 1.2285-1.0566 0.32094-0.29718 0.80103-0.77457 1.0644-1.0606 0.26384-0.28591 0.62212-0.69183 0.79883-0.90234 0.17631-0.21007 0.49235-0.60842 0.70118-0.88476 0.2084-0.27594 0.57225-0.79574 0.80859-1.1563 0.23632-0.36052 0.54831-0.86305 0.69336-1.1152 0.14505-0.25217 0.41707-0.76844 0.60546-1.1465 0.18841-0.37847 0.43153-0.89431 0.53906-1.1465 0.10753-0.25217 0.25351-0.60762 0.32227-0.79101 0.0692-0.18339 0.20844-0.57699 0.31055-0.875 0.10253-0.29802 0.26939-0.84217 0.3711-1.209 0.10211-0.36679 0.25046-0.98525 0.33007-1.375 0.0792-0.38971 0.18156-0.95396 0.22657-1.252 0.0454-0.29801 0.11469-0.86854 0.15429-1.2695 0.053-0.53186 0.0728-1.1027 0.0723-2.1055-0.00075-0.75647-0.0245-1.6659-0.0528-2.0215-0.0288-0.35554-0.0883-0.93741-0.13282-1.293-0.0446-0.35554-0.12985-0.91782-0.18945-1.25s-0.19058-0.93329-0.29102-1.3359c-0.10045-0.40263-0.27459-1.003-0.38672-1.334-0.1117-0.33094-0.28039-0.79376-0.37499-1.0293-0.0947-0.2355-0.25937-0.60076-0.36524-0.8125-0.10628-0.21173-0.27708-0.51726-0.38087-0.67773-0.10336-0.16047-0.29785-0.42604-0.43164-0.58985-0.1342-0.16422-0.38731-0.43037-0.56444-0.59375-0.17715-0.16298-0.47356-0.3981-0.65821-0.52148-0.18423-0.12295-0.48457-0.29893-0.66796-0.39063-0.1834-0.0913-0.49804-0.22252-0.69727-0.29296-0.19965-0.0705-0.56493-0.16844-0.8125-0.2168-0.26759-0.0517-0.67744-0.094-1.0117-0.10352zm-29.822 0.16602c-0.52892-0.0117-0.86195 0.00079-1.125 0.043-0.20548 0.0334-0.53556 0.10891-0.73437 0.16601-0.19841 0.0575-0.51221 0.1662-0.69726 0.24414-0.18465 0.078-0.45709 0.21003-0.60548 0.29297-0.14796 0.083-0.42587 0.26691-0.61718 0.4082-0.1909 0.14131-0.49825 0.41163-0.68164 0.59962-0.1834 0.1884-0.43832 0.48944-0.56836 0.66991-0.13005 0.18049-0.3227 0.48124-0.42774 0.66797-0.10503 0.18673-0.28283 0.57055-0.39453 0.85352-0.11212 0.28301-0.31136 0.84271-0.4414 1.2442-0.13047 0.40096-0.31794 1.0576-0.41798 1.459-0.10045 0.40096-0.22958 0.9735-0.28711 1.2715-0.05747 0.29803-0.14318 0.80408-0.18945 1.125-0.04588 0.32094-0.11036 0.89306-0.14453 1.2715-0.03418 0.37804-0.07527 1.0532-0.08986 1.5-0.01539 0.46806-0.008 1.1394 0.01949 1.582 0.02579 0.42265 0.08616 1.0695 0.13281 1.4375 0.04708 0.36804 0.13124 0.92275 0.1875 1.2324 0.05667 0.30927 0.18652 0.90568 0.28907 1.3242 0.10253 0.41847 0.29195 1.0853 0.41992 1.4805 0.12837 0.39513 0.35621 1.0278 0.50586 1.4063 0.14922 0.37804 0.44381 1.043 0.6543 1.4785 0.21049 0.43557 0.53804 1.0643 0.72852 1.3965 0.19047 0.33261 0.50651 0.84849 0.70117 1.1465 0.19464 0.29802 0.56577 0.82215 0.82422 1.166 0.25884 0.34387 0.61931 0.80349 0.80274 1.0215 0.1834 0.21757 0.51781 0.59304 0.74413 0.83399 0.22592 0.24132 0.64531 0.66436 0.93165 0.93945 0.28677 0.27509 0.73844 0.68214 1.0039 0.90429 0.26551 0.22216 0.72766 0.58825 1.0273 0.8125 0.29968 0.22424 0.60086 0.43892 0.66797 0.47852l0.12305 0.0723 0.02539-0.55079c0.01379-0.30301 0.05468-0.75758 0.09176-1.0098 0.03708-0.25216 0.10495-0.62767 0.15039-0.83399 0.04538-0.20631 0.1398-0.572 0.20898-0.81249 0.06957-0.24091 0.22119-0.6805 0.33789-0.97853 0.11712-0.29801 0.3381-0.78599 0.49023-1.084 0.15214-0.298 0.39444-0.72974 0.53907-0.95898 0.14462-0.22925 0.41778-0.62282 0.60742-0.875 0.18922-0.25216 0.54121-0.67407 0.78125-0.9375 0.24009-0.26384 0.62751-0.64915 0.86133-0.85547 0.23383-0.20632 0.64272-0.53639 0.90821-0.73437 0.2655-0.19841 0.66794-0.47155 0.89257-0.60743l0.4082-0.24804-0.39648-0.34375c-0.21758-0.18923-0.55241-0.52126-0.74414-0.73633-0.19131-0.21507-0.45507-0.5328-0.58594-0.70703-0.1313-0.17423-0.34921-0.49533-0.48633-0.7129-0.13671-0.21757-0.37731-0.65879-0.5332-0.97851-0.1563-0.31927-0.36845-0.83719-0.47265-1.1523-0.10378-0.31511-0.23699-0.78938-0.29492-1.0527-0.05797-0.26384-0.12903-0.6472-0.15821-0.85352-0.03079-0.21632-0.05208-0.75423-0.05078-1.2715 0.001-0.72774 0.01869-0.99737 0.09376-1.4375 0.05048-0.29801 0.14579-0.74978 0.21289-1.002 0.06667-0.25216 0.24491-0.80858 0.39454-1.2383 0.14921-0.42973 0.31242-0.99197 0.36328-1.25 0.07376-0.37513 0.09336-0.61649 0.09376-1.1992 0-0.4985-0.02169-0.84916-0.06837-1.1055-0.03788-0.20631-0.11661-0.54367-0.17579-0.75-0.05877-0.20631-0.22786-0.61799-0.375-0.91601-0.14797-0.30052-0.38706-0.7005-0.53711-0.89844-0.1488-0.1959-0.44845-0.5264-0.66602-0.73438-0.21716-0.20798-0.55679-0.48589-0.7539-0.61718-0.19716-0.13089-0.54028-0.329-0.76368-0.43946-0.22342-0.11003-0.57932-0.25769-0.79102-0.32813-0.21173-0.0705-0.56914-0.16691-0.79296-0.21484-0.30052-0.0646-0.60145-0.0914-1.1563-0.10351zm-20.328 5.0644 0.02149 1.9902c0.01789 1.781 0.02839 2.0391 0.10546 2.4492 0.04708 0.25216 0.13376 0.62765 0.19336 0.83398 0.05957 0.20631 0.1914 0.57744 0.29102 0.82421 0.09965 0.24676 0.277 0.62031 0.39454 0.83204 0.11796 0.21174 0.33486 0.55544 0.48242 0.76172 0.14755 0.20633 0.39433 0.51536 0.54688 0.6875 0.15297 0.17172 0.43692 0.45721 0.63282 0.63477 0.19632 0.17756 0.5264 0.4434 0.73438 0.59179 0.20757 0.14796 0.55191 0.36683 0.76368 0.48438 0.21173 0.11795 0.58724 0.29492 0.83398 0.39453 0.24674 0.0996 0.61591 0.23141 0.82227 0.29102 0.20631 0.0596 0.58182 0.14626 0.83398 0.19336 0.41014 0.0772 0.66821 0.0894 2.4492 0.10742l1.9902 0.0195v-0.086c0-0.0476-0.04678-0.37213-0.10351-0.72266-0.05707-0.35011-0.12384-0.8997-0.14844-1.2207-0.02589-0.33719-0.03368-0.9886-0.01949-1.543 0.01379-0.52725 0.04348-1.2303 0.06637-1.5625 0.02249-0.3322 0.05307-0.66563 0.06637-0.74024l0.02339-0.13476-1.5996-0.002c-1.3717-0.002-1.6375-0.0129-1.873-0.0743-0.15089-0.0396-0.37972-0.13608-0.50977-0.21485-0.13004-0.0784-0.30994-0.21996-0.40038-0.31249-0.09006-0.0926-0.23011-0.27637-0.31054-0.41016-0.08046-0.13422-0.1751-0.37216-0.21094-0.5293-0.05258-0.23133-0.06637-0.58364-0.06637-1.8516v-1.5645h-0.175c-0.09755 0.00042-0.43055 0.0299-0.74024 0.0645-0.30928 0.0346-0.96594 0.0742-1.459 0.0879-0.53601 0.015-1.1594 0.005-1.5508-0.0234-0.36011-0.0263-0.93611-0.0958-1.2813-0.15234-0.34553-0.0567-0.66691-0.10157-0.71484-0.10157v-0.002zm69.951 0-0.13672 0.006c-0.0746 0.003-0.38953 0.0487-0.69922 0.10156-0.30969 0.0534-0.87195 0.11856-1.25 0.14649-0.45265 0.0329-1.0795 0.0414-1.834 0.0235-0.6302-0.0146-1.277-0.0459-1.4375-0.0684-0.16046-0.0229-0.34414-0.0516-0.40625-0.0645l-0.11133-0.0254-0.0137 1.7461-0.0117 1.7461-0.16016 0.32422c-0.1042 0.21048-0.24435 0.40842-0.39648 0.56055-0.14004 0.13963-0.34496 0.28925-0.50586 0.36718-0.1488 0.0722-0.37048 0.15036-0.49219 0.17579-0.13797 0.0288-0.80595 0.0469-1.7812 0.0469h-1.54v0.24414c0 0.13463 0.0293 0.52429 0.0664 0.86524 0.0508 0.4714 0.0609 0.84627 0.043 1.5586-0.0134 0.51976-0.0706 1.393-0.1289 1.959-0.0583 0.56143-0.11668 1.0997-0.13085 1.1973l-0.0274 0.17774h1.6211c0.89074 0 1.8259-0.0193 2.0781-0.043 0.25216-0.0238 0.64575-0.0807 0.875-0.12695 0.22924-0.0463 0.64092-0.15914 0.91601-0.25 0.27509-0.0913 0.70682-0.26724 0.95899-0.39062 0.25216-0.12296 0.6379-0.34142 0.85547-0.48438 0.21799-0.14338 0.52801-0.36858 0.6914-0.50195 0.16339-0.13338 0.4427-0.38759 0.6211-0.56641 0.17839-0.17839 0.43821-0.46694 0.57617-0.63867 0.13796-0.17214 0.36175-0.48118 0.49805-0.6875 0.13628-0.20632 0.34773-0.58096 0.4707-0.83398 0.12254-0.25301 0.29739-0.68472 0.38867-0.95899 0.0913-0.27426 0.20373-0.6868 0.25-0.91602 0.0463-0.22923 0.10514-0.62282 0.12891-0.87499 0.0238-0.25217 0.043-1.2139 0.043-2.1367zm-42.471 5.0859-0.02339 0.0723c-0.0121 0.0401-0.07187 0.33532-0.13477 0.65626-0.10169 0.52142-0.11482 0.67663-0.11524 1.459 0 0.72858 0.01509 0.95735 0.09176 1.3633 0.05088 0.26802 0.16919 0.71783 0.26172 1 0.09256 0.28176 0.27496 0.71852 0.40625 0.9707l0.23829 0.45899 6.8359 0.01 6.8359 0.0117 0.0547-0.0899c0.0305-0.0488 0.14834-0.27325 0.26171-0.50001 0.11337-0.22673 0.26972-0.60515 0.34766-0.83983 0.078-0.23424 0.18071-0.61258 0.22656-0.8418 0.0463-0.22925 0.10377-0.66097 0.13086-0.95899 0.028-0.31094 0.0378-0.73302 0.0215-0.99023-0.0154-0.24675-0.0452-0.55622-0.0664-0.6875-0.0213-0.13171-0.0798-0.43289-0.1289-0.66797l-0.0899-0.42578h-7.5742zm7.707 10.066c-0.46974-0.009-1.0139 0.001-1.209 0.0215-0.19464 0.0204-0.532 0.0668-0.75 0.10352-0.21757 0.0371-0.57973 0.11366-0.80274 0.16992-0.22299 0.0563-0.57734 0.15961-0.78905 0.23046-0.21174 0.0709-0.55889 0.20365-0.77149 0.29493-0.21215 0.0913-0.59788 0.27763-0.85546 0.41601-0.258 0.13838-0.63703 0.36441-0.84376 0.50196-0.20673 0.13754-0.55545 0.39301-0.77344 0.5664-0.21757 0.17338-0.59376 0.51372-0.83593 0.75586-0.24258 0.24216-0.59008 0.63004-0.77344 0.86133-0.18381 0.23133-0.44209 0.58467-0.57422 0.78516-0.13212 0.20047-0.34329 0.55412-0.46875 0.78711-0.12545 0.233-0.31096 0.61279-0.41015 0.84375-0.09965 0.23132-0.23998 0.59701-0.3125 0.8125-0.07257 0.2159-0.18567 0.61744-0.25195 0.89257-0.06627 0.27509-0.15335 0.71663-0.19336 0.98048-0.05418 0.3547-0.07426 0.73415-0.07426 1.459 0 0.72815 0.01919 1.1026 0.07426 1.459 0.04038 0.26383 0.11082 0.63934 0.15625 0.83399 0.04498 0.19464 0.12915 0.51632 0.1875 0.71679 0.05837 0.20007 0.18216 0.55749 0.27344 0.79298 0.09166 0.23508 0.26431 0.62427 0.38476 0.86522 0.12045 0.24049 0.3284 0.61645 0.46094 0.83399 0.13296 0.21799 0.37175 0.56578 0.5293 0.77539 0.15797 0.20966 0.4415 0.55725 0.63281 0.77148 0.19131 0.21466 0.49601 0.52383 0.67773 0.68555 0.18174 0.16214 0.46258 0.39743 0.62305 0.52539 0.16048 0.12754 0.46993 0.35148 0.6875 0.4961 0.21799 0.14505 0.65757 0.39856 0.97851 0.56445s0.781 0.3793 1.0215 0.47266c0.2405 0.0937 0.63182 0.22656 0.8711 0.29492 0.23884 0.0688 0.61429 0.15976 0.83399 0.20312 0.21965 0.0438 0.57934 0.10394 0.79687 0.13477 0.23675 0.0334 0.76443 0.0555 1.3125 0.0547 0.65648-0.00075 1.058-0.0232 1.416-0.0762 0.2751-0.0409 0.66083-0.1097 0.85547-0.1543 0.19507-0.045 0.52219-0.1318 0.72852-0.1914 0.20631-0.0596 0.56372-0.18257 0.79297-0.27344 0.22924-0.0905 0.63516-0.27398 0.90234-0.4082 0.26716-0.13462 0.64267-0.34172 0.83398-0.46094 0.19131-0.11919 0.51929-0.34523 0.72852-0.50195 0.20965-0.15714 0.55725-0.44151 0.77148-0.63282 0.21466-0.19132 0.52188-0.496 0.68359-0.67773 0.16215-0.18172 0.3994-0.46257 0.52735-0.62304 0.12755-0.16047 0.34951-0.46993 0.49415-0.6875 0.14504-0.21799 0.4001-0.65758 0.5664-0.97852 0.16589-0.32094 0.37087-0.76292 0.45508-0.98047 0.0838-0.21799 0.20605-0.56906 0.27148-0.78125 0.0655-0.21215 0.16444-0.60574 0.2207-0.875 0.0559-0.26925 0.12582-0.66918 0.15625-0.88671 0.0329-0.23508 0.0555-0.76818 0.0547-1.3125-0.00074-0.6498-0.0226-1.0617-0.0743-1.416-0.0401-0.2751-0.11082-0.66083-0.15625-0.85548-0.0451-0.19507-0.12915-0.51826-0.1875-0.71874-0.0584-0.20007-0.18104-0.55379-0.27149-0.78516-0.0901-0.23175-0.25788-0.61035-0.37499-0.84375-0.11671-0.23299-0.26113-0.50838-0.32031-0.61133-0.0592-0.10337-0.21959-0.35617-0.35548-0.5625-0.13586-0.20631-0.35096-0.50749-0.47851-0.66796-0.12795-0.16047-0.3652-0.43937-0.52734-0.6211-0.16172-0.18173-0.46894-0.48641-0.6836-0.67773-0.21423-0.19131-0.56434-0.47862-0.77734-0.63867-0.21299-0.16005-0.59104-0.41552-0.83985-0.56641-0.24882-0.1513-0.62797-0.35687-0.84179-0.45899s-0.56928-0.25775-0.79102-0.34569c-0.22173-0.088-0.57301-0.20994-0.77929-0.26954-0.20632-0.0601-0.53345-0.14639-0.72851-0.19141-0.19465-0.0451-0.55206-0.11175-0.79297-0.14843-0.24926-0.0379-0.80465-0.0733-1.291-0.0821z"
     fill="#4a6a52" /></svg>